Coordinates
version=1
nRows=10
nColumns=27
inDegrees=yes

Units are S.I. units (second, meters, Newtons, ...)
If the header above contains a line with 'inDegrees', this indicates whether rotational values are in degrees (yes) or radians (no).

endheader
time	pelvis_rotation	pelvis_tilt	pelvis_list	pelvis_tx	pelvis_ty	pelvis_tz	hip_flexion_r	hip_adduction_r	hip_rotation_r	knee_angle_r	knee_rotation_r	knee_adduction_r	knee_angle_r_beta	ankle_angle_r	subtalar_angle_r	mtp_angle_r	hip_flexion_l	hip_adduction_l	hip_rotation_l	knee_angle_l	knee_rotation_l	knee_adduction_l	knee_angle_l_beta	ankle_angle_l	subtalar_angle_l	mtp_angle_l
      3.91500000	      2.01420348	    -30.52161154	      8.26973267	      0.01698200	      0.80494421	     -1.17532645	     59.43314038	    -36.51165940	    -17.66091898	     37.86307945	      0.00000000	      7.40065676	      0.66083540	     -0.43773896	      0.00000000	      0.00000000	     53.11343337	    -18.52074536	    -16.28188560	     29.66160513	      0.00000000	     -3.36271666	      0.51769267	     -3.70505440	      0.00000000	      0.00000000
      3.92000000	      2.16002010	    -29.37421961	      8.00071207	      0.01887184	      0.80446873	     -1.17501585	     57.74888078	    -36.89805427	    -19.27386933	     37.97581341	      0.00000000	      8.46595057	      0.66280298	     -0.20778574	      0.00000000	      0.00000000	     52.08058479	    -18.74332603	    -16.73953448	     29.80424006	      0.00000000	     -4.42974456	      0.52018212	     -3.48762337	      0.00000000	      0.00000000
      3.92500000	      1.90834360	    -29.47092488	      8.01621674	      0.01783025	      0.80305325	     -1.17478632	     58.51217208	    -36.88804373	    -18.68817033	     38.57128129	      0.00000000	      8.55462528	      0.67319586	     -0.06840556	      0.00000000	      0.00000000	     52.44802219	    -19.08957156	    -17.28468220	     30.41526617	      0.00000000	     -4.93965380	      0.53084654	     -3.27950439	      0.00000000	      0.00000000
      3.93000000	      1.85432038	    -29.69022938	      8.12883619	      0.01657682	      0.80155634	     -1.17469959	     59.39431947	    -37.02178480	    -18.17114536	     39.19891749	      0.00000000	      8.63680175	      0.68415017	      0.07282806	      0.00000000	      0.00000000	     53.02379082	    -19.27102429	    -17.57784095	     31.02267426	      0.00000000	     -5.33834944	      0.54144781	     -3.08324651	      0.00000000	      0.00000000
      3.93500000	      1.33805345	    -29.93306345	      8.41724843	      0.01510560	      0.79994116	     -1.17465738	     60.81778146	    -36.98096390	    -16.79273287	     39.93345792	      0.00000000	      8.65880640	      0.69697032	      0.20237788	      0.00000000	      0.00000000	     53.30625654	    -19.57128862	    -18.60191859	     31.60462166	      0.00000000	     -5.84328110	      0.55160471	     -2.87106170	      0.00000000	      0.00000000
      3.94000000	      1.43285910	    -31.24555472	      7.87553010	      0.01157337	      0.79793631	     -1.17414080	     62.55879822	    -36.44782930	    -16.27661259	     40.55619492	      0.00000000	      7.97266866	      0.70783913	      0.18266325	      0.00000000	      0.00000000	     55.78152975	    -20.22418383	    -17.42848357	     32.80739607	      0.00000000	     -5.47016752	      0.57259708	     -2.71216481	      0.00000000	      0.00000000
      3.94500000	      1.39335815	    -30.26826914	      8.13250107	      0.01279195	      0.79724652	     -1.17430344	     61.76042219	    -37.02721346	    -16.78663544	     40.85634188	      0.00000000	      8.84664590	      0.71307769	      0.39331868	      0.00000000	      0.00000000	     54.62571006	    -20.16085600	    -18.39853404	     32.85079233	      0.00000000	     -6.40272858	      0.57335449	     -2.53024926	      0.00000000	      0.00000000
      3.95000000	      1.58017026	    -30.52320006	      8.02745346	      0.01143269	      0.79584888	     -1.17419792	     62.27714757	    -37.13088244	    -16.83144251	     41.31558230	      0.00000000	      8.91493581	      0.72109294	      0.51819303	      0.00000000	      0.00000000	     55.45699864	    -20.31881612	    -17.98090879	     33.44939726	      0.00000000	     -6.54913899	      0.58380211	     -2.34237757	      0.00000000	      0.00000000
      3.95500000	      1.44337470	    -31.63149663	      7.46291302	      0.00833366	      0.79400871	     -1.17372939	     63.80263232	    -36.50349389	    -16.25233436	     41.81655374	      0.00000000	      8.25807559	      0.72983654	      0.44235150	      0.00000000	      0.00000000	     57.54104445	    -21.04541609	    -17.16021450	     34.54111048	      0.00000000	     -6.29969073	      0.60285611	     -2.22901135	      0.00000000	      0.00000000
      3.96000000	      1.64075336	    -30.67052792	      7.54764117	      0.00961764	      0.79350281	     -1.17389097	     62.65898483	    -37.10468778	    -17.24483004	     41.96862382	      0.00000000	      9.06401602	      0.73249067	      0.47992427	      0.00000000	      0.00000000	     56.56465142	    -20.94553798	    -17.59724715	     34.56494046	      0.00000000	     -7.12314860	      0.60327202	     -1.93897367	      0.00000000	      0.00000000
